<mxfile host="app.diagrams.net" agent="Mozilla/5.0 (Windows NT 10.0; Win64; x64) AppleWebKit/537.36 (KHTML, like Gecko) Chrome/140.0.0.0 Safari/537.36" version="28.2.4">
  <diagram name="Page-1" id="j7nlqJqDzyui8_0LWwp3">
    <mxGraphModel grid="1" page="1" gridSize="10" guides="1" tooltips="1" connect="1" arrows="1" fold="1" pageScale="1" pageWidth="827" pageHeight="1169" math="0" shadow="0">
      <root>
        <mxCell id="0" />
        <mxCell id="1" parent="0" />
        <mxCell id="fM2BKAsaaPWlNRGQhoTq-2" value="" style="shape=folder;fontStyle=1;tabWidth=200;tabHeight=30;tabPosition=left;html=1;boundedLbl=1;whiteSpace=wrap;fillColor=#dae8fc;strokeColor=#6c8ebf;" vertex="1" parent="1">
          <mxGeometry x="130" y="350" width="1270" height="100" as="geometry" />
        </mxCell>
        <mxCell id="fM2BKAsaaPWlNRGQhoTq-3" value="API" style="text;html=1;align=center;verticalAlign=middle;whiteSpace=wrap;rounded=0;" vertex="1" parent="1">
          <mxGeometry x="735" y="380" width="60" height="30" as="geometry" />
        </mxCell>
        <mxCell id="fM2BKAsaaPWlNRGQhoTq-35" style="edgeStyle=orthogonalEdgeStyle;rounded=0;orthogonalLoop=1;jettySize=auto;html=1;dashed=1;" edge="1" parent="1" source="fM2BKAsaaPWlNRGQhoTq-4">
          <mxGeometry relative="1" as="geometry">
            <mxPoint x="185" y="740" as="targetPoint" />
            <Array as="points">
              <mxPoint x="185" y="690" />
              <mxPoint x="185" y="690" />
            </Array>
          </mxGeometry>
        </mxCell>
        <mxCell id="fM2BKAsaaPWlNRGQhoTq-4" value="" style="shape=folder;fontStyle=1;tabWidth=30;tabHeight=30;tabPosition=left;html=1;boundedLbl=1;whiteSpace=wrap;fillColor=#647687;fontColor=#ffffff;strokeColor=#314354;" vertex="1" parent="1">
          <mxGeometry x="130" y="540" width="150" height="120" as="geometry" />
        </mxCell>
        <mxCell id="fM2BKAsaaPWlNRGQhoTq-5" value="Register" style="text;html=1;align=center;verticalAlign=middle;whiteSpace=wrap;rounded=0;" vertex="1" parent="1">
          <mxGeometry x="175" y="575" width="60" height="30" as="geometry" />
        </mxCell>
        <mxCell id="fM2BKAsaaPWlNRGQhoTq-115" style="edgeStyle=orthogonalEdgeStyle;rounded=0;orthogonalLoop=1;jettySize=auto;html=1;entryX=0.5;entryY=0;entryDx=0;entryDy=0;dashed=1;" edge="1" parent="1" source="fM2BKAsaaPWlNRGQhoTq-12" target="fM2BKAsaaPWlNRGQhoTq-110">
          <mxGeometry relative="1" as="geometry">
            <Array as="points">
              <mxPoint x="1210" y="690" />
              <mxPoint x="1210" y="690" />
            </Array>
          </mxGeometry>
        </mxCell>
        <mxCell id="fM2BKAsaaPWlNRGQhoTq-12" value="" style="shape=folder;fontStyle=1;tabWidth=30;tabHeight=30;tabPosition=left;html=1;boundedLbl=1;whiteSpace=wrap;fillColor=#f8cecc;gradientColor=#ea6b66;strokeColor=#b85450;" vertex="1" parent="1">
          <mxGeometry x="1200" y="560" width="110" height="100" as="geometry" />
        </mxCell>
        <mxCell id="fM2BKAsaaPWlNRGQhoTq-13" value="Payment" style="text;html=1;align=center;verticalAlign=middle;whiteSpace=wrap;rounded=0;" vertex="1" parent="1">
          <mxGeometry x="1225" y="590" width="60" height="30" as="geometry" />
        </mxCell>
        <mxCell id="fM2BKAsaaPWlNRGQhoTq-119" style="edgeStyle=orthogonalEdgeStyle;rounded=0;orthogonalLoop=1;jettySize=auto;html=1;entryX=0.5;entryY=0;entryDx=0;entryDy=0;dashed=1;" edge="1" parent="1" source="fM2BKAsaaPWlNRGQhoTq-14" target="fM2BKAsaaPWlNRGQhoTq-107">
          <mxGeometry relative="1" as="geometry">
            <Array as="points">
              <mxPoint x="970" y="680" />
              <mxPoint x="970" y="680" />
            </Array>
          </mxGeometry>
        </mxCell>
        <mxCell id="fM2BKAsaaPWlNRGQhoTq-14" value="" style="shape=folder;fontStyle=1;tabWidth=30;tabHeight=35;tabPosition=left;html=1;boundedLbl=1;whiteSpace=wrap;fillColor=#ffcd28;gradientColor=#ffa500;strokeColor=#d79b00;" vertex="1" parent="1">
          <mxGeometry x="960" y="555" width="110" height="105" as="geometry" />
        </mxCell>
        <mxCell id="fM2BKAsaaPWlNRGQhoTq-15" value="Adminstration" style="text;html=1;align=center;verticalAlign=middle;whiteSpace=wrap;rounded=0;" vertex="1" parent="1">
          <mxGeometry x="977.5" y="590" width="75" height="30" as="geometry" />
        </mxCell>
        <mxCell id="fM2BKAsaaPWlNRGQhoTq-48" style="edgeStyle=orthogonalEdgeStyle;rounded=0;orthogonalLoop=1;jettySize=auto;html=1;entryX=0.5;entryY=0;entryDx=0;entryDy=0;dashed=1;" edge="1" parent="1" source="fM2BKAsaaPWlNRGQhoTq-16" target="fM2BKAsaaPWlNRGQhoTq-40">
          <mxGeometry relative="1" as="geometry">
            <Array as="points">
              <mxPoint x="775" y="740" />
              <mxPoint x="775" y="740" />
            </Array>
          </mxGeometry>
        </mxCell>
        <mxCell id="fM2BKAsaaPWlNRGQhoTq-111" style="edgeStyle=orthogonalEdgeStyle;rounded=0;orthogonalLoop=1;jettySize=auto;html=1;entryX=0.5;entryY=0;entryDx=0;entryDy=0;dashed=1;" edge="1" parent="1" source="fM2BKAsaaPWlNRGQhoTq-16" target="fM2BKAsaaPWlNRGQhoTq-104">
          <mxGeometry relative="1" as="geometry">
            <Array as="points">
              <mxPoint x="700" y="680" />
              <mxPoint x="700" y="680" />
            </Array>
          </mxGeometry>
        </mxCell>
        <mxCell id="fM2BKAsaaPWlNRGQhoTq-16" value="" style="shape=folder;fontStyle=1;tabWidth=30;tabHeight=30;tabPosition=left;html=1;boundedLbl=1;whiteSpace=wrap;fillColor=#d5e8d4;gradientColor=#97d077;strokeColor=#82b366;" vertex="1" parent="1">
          <mxGeometry x="670" y="560" width="105" height="100" as="geometry" />
        </mxCell>
        <mxCell id="fM2BKAsaaPWlNRGQhoTq-17" value="meeting" style="text;html=1;align=center;verticalAlign=middle;whiteSpace=wrap;rounded=0;" vertex="1" parent="1">
          <mxGeometry x="695" y="595" width="60" height="30" as="geometry" />
        </mxCell>
        <mxCell id="fM2BKAsaaPWlNRGQhoTq-18" value="" style="shape=folder;fontStyle=1;tabWidth=30;tabHeight=30;tabPosition=left;html=1;boundedLbl=1;whiteSpace=wrap;fillColor=#d80073;fontColor=#ffffff;strokeColor=#A50040;" vertex="1" parent="1">
          <mxGeometry x="414" y="560" width="110" height="100" as="geometry" />
        </mxCell>
        <mxCell id="fM2BKAsaaPWlNRGQhoTq-19" value="User Access" style="text;html=1;align=center;verticalAlign=middle;whiteSpace=wrap;rounded=0;" vertex="1" parent="1">
          <mxGeometry x="431.5" y="595" width="75" height="30" as="geometry" />
        </mxCell>
        <mxCell id="fM2BKAsaaPWlNRGQhoTq-22" style="edgeStyle=orthogonalEdgeStyle;rounded=0;orthogonalLoop=1;jettySize=auto;html=1;entryX=0;entryY=0;entryDx=0;entryDy=65;entryPerimeter=0;dashed=1;" edge="1" parent="1" source="fM2BKAsaaPWlNRGQhoTq-4" target="fM2BKAsaaPWlNRGQhoTq-18">
          <mxGeometry relative="1" as="geometry">
            <Array as="points">
              <mxPoint x="310" y="625" />
              <mxPoint x="310" y="625" />
            </Array>
          </mxGeometry>
        </mxCell>
        <mxCell id="fM2BKAsaaPWlNRGQhoTq-39" value="" style="shape=folder;fontStyle=1;tabWidth=210;tabHeight=30;tabPosition=left;html=1;boundedLbl=1;whiteSpace=wrap;fillColor=#0050ef;strokeColor=#001DBC;fontColor=#ffffff;" vertex="1" parent="1">
          <mxGeometry x="110" y="920" width="1290" height="100" as="geometry" />
        </mxCell>
        <mxCell id="fM2BKAsaaPWlNRGQhoTq-40" value="IN memory events Bus" style="text;html=1;align=center;verticalAlign=middle;whiteSpace=wrap;rounded=0;" vertex="1" parent="1">
          <mxGeometry x="630" y="950" width="290" height="30" as="geometry" />
        </mxCell>
        <mxCell id="fM2BKAsaaPWlNRGQhoTq-43" style="edgeStyle=orthogonalEdgeStyle;rounded=0;orthogonalLoop=1;jettySize=auto;html=1;entryX=0.116;entryY=-0.01;entryDx=0;entryDy=0;entryPerimeter=0;dashed=1;" edge="1" parent="1" source="fM2BKAsaaPWlNRGQhoTq-4" target="fM2BKAsaaPWlNRGQhoTq-39">
          <mxGeometry relative="1" as="geometry">
            <Array as="points">
              <mxPoint x="260" y="730" />
              <mxPoint x="260" y="730" />
            </Array>
          </mxGeometry>
        </mxCell>
        <mxCell id="fM2BKAsaaPWlNRGQhoTq-45" style="edgeStyle=orthogonalEdgeStyle;rounded=0;orthogonalLoop=1;jettySize=auto;html=1;entryX=0.304;entryY=0.287;entryDx=0;entryDy=0;entryPerimeter=0;dashed=1;" edge="1" parent="1" source="fM2BKAsaaPWlNRGQhoTq-18" target="fM2BKAsaaPWlNRGQhoTq-39">
          <mxGeometry relative="1" as="geometry">
            <Array as="points">
              <mxPoint x="502" y="730" />
              <mxPoint x="502" y="730" />
            </Array>
          </mxGeometry>
        </mxCell>
        <mxCell id="fM2BKAsaaPWlNRGQhoTq-51" style="edgeStyle=orthogonalEdgeStyle;rounded=0;orthogonalLoop=1;jettySize=auto;html=1;entryX=0.73;entryY=0.321;entryDx=0;entryDy=0;entryPerimeter=0;dashed=1;" edge="1" parent="1" source="fM2BKAsaaPWlNRGQhoTq-14" target="fM2BKAsaaPWlNRGQhoTq-39">
          <mxGeometry relative="1" as="geometry">
            <Array as="points">
              <mxPoint x="1052" y="730" />
              <mxPoint x="1052" y="730" />
            </Array>
          </mxGeometry>
        </mxCell>
        <mxCell id="fM2BKAsaaPWlNRGQhoTq-52" value="" style="shape=folder;fontStyle=1;tabWidth=210;tabHeight=30;tabPosition=left;html=1;boundedLbl=1;whiteSpace=wrap;fillColor=#dae8fc;strokeColor=#6c8ebf;" vertex="1" parent="1">
          <mxGeometry x="205" y="1110" width="1035" height="100" as="geometry" />
        </mxCell>
        <mxCell id="fM2BKAsaaPWlNRGQhoTq-53" value="API" style="text;html=1;align=center;verticalAlign=middle;whiteSpace=wrap;rounded=0;" vertex="1" parent="1">
          <mxGeometry x="630" y="1139" width="290" height="30" as="geometry" />
        </mxCell>
        <mxCell id="fM2BKAsaaPWlNRGQhoTq-54" value="" style="rounded=1;whiteSpace=wrap;html=1;strokeColor=#82b366;fillColor=#d5e8d4;arcSize=6;opacity=50;" vertex="1" parent="1">
          <mxGeometry x="210" y="1240" width="490" height="520" as="geometry" />
        </mxCell>
        <mxCell id="fM2BKAsaaPWlNRGQhoTq-56" value="" style="rounded=1;whiteSpace=wrap;html=1;fillColor=#ffe6cc;strokeColor=#d79b00;arcSize=6;opacity=50;" vertex="1" parent="1">
          <mxGeometry x="720" y="1240" width="520" height="520" as="geometry" />
        </mxCell>
        <mxCell id="fM2BKAsaaPWlNRGQhoTq-58" value="Meeting" style="text;html=1;align=center;verticalAlign=middle;whiteSpace=wrap;rounded=0;" vertex="1" parent="1">
          <mxGeometry x="210" y="1240" width="60" height="30" as="geometry" />
        </mxCell>
        <mxCell id="fM2BKAsaaPWlNRGQhoTq-59" value="adminstration" style="text;html=1;align=center;verticalAlign=middle;whiteSpace=wrap;rounded=0;" vertex="1" parent="1">
          <mxGeometry x="1110" y="1240" width="110" height="30" as="geometry" />
        </mxCell>
        <mxCell id="fM2BKAsaaPWlNRGQhoTq-82" style="edgeStyle=orthogonalEdgeStyle;rounded=0;orthogonalLoop=1;jettySize=auto;html=1;entryX=0.5;entryY=0;entryDx=0;entryDy=0;dashed=1;" edge="1" parent="1" source="fM2BKAsaaPWlNRGQhoTq-60" target="fM2BKAsaaPWlNRGQhoTq-122">
          <mxGeometry relative="1" as="geometry">
            <mxPoint x="366.5" y="1780" as="targetPoint" />
            <Array as="points">
              <mxPoint x="360" y="1760" />
              <mxPoint x="360" y="1760" />
            </Array>
          </mxGeometry>
        </mxCell>
        <mxCell id="fM2BKAsaaPWlNRGQhoTq-60" value="" style="shape=folder;fontStyle=1;tabWidth=30;tabHeight=30;tabPosition=left;html=1;boundedLbl=1;whiteSpace=wrap;fillColor=#60a917;strokeColor=#2D7600;fontColor=#ffffff;" vertex="1" parent="1">
          <mxGeometry x="235" y="1300" width="165" height="410" as="geometry" />
        </mxCell>
        <mxCell id="fM2BKAsaaPWlNRGQhoTq-61" value="meetings infrastucture" style="text;html=1;align=center;verticalAlign=middle;whiteSpace=wrap;rounded=0;" vertex="1" parent="1">
          <mxGeometry x="250" y="1340" width="130" height="30" as="geometry" />
        </mxCell>
        <mxCell id="fM2BKAsaaPWlNRGQhoTq-88" style="edgeStyle=orthogonalEdgeStyle;rounded=0;orthogonalLoop=1;jettySize=auto;html=1;entryX=0.5;entryY=0;entryDx=0;entryDy=0;dashed=1;" edge="1" parent="1" source="fM2BKAsaaPWlNRGQhoTq-62" target="fM2BKAsaaPWlNRGQhoTq-67">
          <mxGeometry relative="1" as="geometry">
            <Array as="points">
              <mxPoint x="604" y="1400" />
              <mxPoint x="604" y="1400" />
            </Array>
          </mxGeometry>
        </mxCell>
        <mxCell id="fM2BKAsaaPWlNRGQhoTq-62" value="" style="shape=folder;fontStyle=1;tabWidth=50;tabHeight=30;tabPosition=left;html=1;boundedLbl=1;whiteSpace=wrap;fillColor=#60a917;fontColor=#ffffff;strokeColor=#2D7600;" vertex="1" parent="1">
          <mxGeometry x="450" y="1280" width="230" height="100" as="geometry" />
        </mxCell>
        <mxCell id="fM2BKAsaaPWlNRGQhoTq-63" value="meeting Application" style="text;html=1;align=center;verticalAlign=middle;whiteSpace=wrap;rounded=0;" vertex="1" parent="1">
          <mxGeometry x="510.5" y="1315" width="109" height="30" as="geometry" />
        </mxCell>
        <mxCell id="fM2BKAsaaPWlNRGQhoTq-64" value="" style="shape=folder;fontStyle=1;tabWidth=50;tabHeight=30;tabPosition=left;html=1;boundedLbl=1;whiteSpace=wrap;fillColor=#60a917;fontColor=#ffffff;strokeColor=#2D7600;" vertex="1" parent="1">
          <mxGeometry x="450" y="1560" width="150" height="120" as="geometry" />
        </mxCell>
        <mxCell id="fM2BKAsaaPWlNRGQhoTq-65" value="meeting domain" style="text;html=1;align=center;verticalAlign=middle;whiteSpace=wrap;rounded=0;" vertex="1" parent="1">
          <mxGeometry x="472.5" y="1590" width="105" height="30" as="geometry" />
        </mxCell>
        <mxCell id="fM2BKAsaaPWlNRGQhoTq-66" value="" style="shape=folder;fontStyle=1;tabWidth=50;tabHeight=30;tabPosition=left;html=1;boundedLbl=1;whiteSpace=wrap;fillColor=#60a917;fontColor=#ffffff;strokeColor=#2D7600;" vertex="1" parent="1">
          <mxGeometry x="524" y="1420" width="156" height="100" as="geometry" />
        </mxCell>
        <mxCell id="fM2BKAsaaPWlNRGQhoTq-67" value="Meeting IntergrationEvents" style="text;html=1;align=center;verticalAlign=middle;whiteSpace=wrap;rounded=0;" vertex="1" parent="1">
          <mxGeometry x="524" y="1455" width="160.5" height="30" as="geometry" />
        </mxCell>
        <mxCell id="fM2BKAsaaPWlNRGQhoTq-91" style="edgeStyle=orthogonalEdgeStyle;rounded=0;orthogonalLoop=1;jettySize=auto;html=1;entryX=0.75;entryY=0;entryDx=0;entryDy=0;dashed=1;" edge="1" parent="1" source="fM2BKAsaaPWlNRGQhoTq-68" target="fM2BKAsaaPWlNRGQhoTq-71">
          <mxGeometry relative="1" as="geometry" />
        </mxCell>
        <mxCell id="fM2BKAsaaPWlNRGQhoTq-92" style="edgeStyle=orthogonalEdgeStyle;rounded=0;orthogonalLoop=1;jettySize=auto;html=1;entryX=0.75;entryY=0;entryDx=0;entryDy=0;dashed=1;" edge="1" parent="1" source="fM2BKAsaaPWlNRGQhoTq-68" target="fM2BKAsaaPWlNRGQhoTq-73">
          <mxGeometry relative="1" as="geometry">
            <Array as="points">
              <mxPoint x="957" y="1450" />
              <mxPoint x="957" y="1450" />
            </Array>
          </mxGeometry>
        </mxCell>
        <mxCell id="fM2BKAsaaPWlNRGQhoTq-68" value="" style="shape=folder;fontStyle=1;tabWidth=50;tabHeight=30;tabPosition=left;html=1;boundedLbl=1;whiteSpace=wrap;fillColor=#fa6800;fontColor=#000000;strokeColor=#C73500;" vertex="1" parent="1">
          <mxGeometry x="747.5" y="1280" width="230" height="100" as="geometry" />
        </mxCell>
        <mxCell id="fM2BKAsaaPWlNRGQhoTq-69" value="Adminstration Application" style="text;html=1;align=center;verticalAlign=middle;whiteSpace=wrap;rounded=0;" vertex="1" parent="1">
          <mxGeometry x="782.25" y="1315" width="160.5" height="30" as="geometry" />
        </mxCell>
        <mxCell id="fM2BKAsaaPWlNRGQhoTq-70" value="" style="shape=folder;fontStyle=1;tabWidth=50;tabHeight=30;tabPosition=left;html=1;boundedLbl=1;whiteSpace=wrap;fillColor=#fa6800;fontColor=#000000;strokeColor=#C73500;" vertex="1" parent="1">
          <mxGeometry x="755" y="1410" width="150" height="120" as="geometry" />
        </mxCell>
        <mxCell id="fM2BKAsaaPWlNRGQhoTq-71" value="Adminstration Integration&lt;div&gt;Events&lt;/div&gt;" style="text;html=1;align=center;verticalAlign=middle;whiteSpace=wrap;rounded=0;" vertex="1" parent="1">
          <mxGeometry x="755" y="1440" width="145" height="30" as="geometry" />
        </mxCell>
        <mxCell id="fM2BKAsaaPWlNRGQhoTq-72" value="" style="shape=folder;fontStyle=1;tabWidth=50;tabHeight=30;tabPosition=left;html=1;boundedLbl=1;whiteSpace=wrap;fillColor=#fa6800;fontColor=#000000;strokeColor=#C73500;" vertex="1" parent="1">
          <mxGeometry x="850" y="1560" width="150" height="120" as="geometry" />
        </mxCell>
        <mxCell id="fM2BKAsaaPWlNRGQhoTq-73" value="Adminstration domain" style="text;html=1;align=center;verticalAlign=middle;whiteSpace=wrap;rounded=0;" vertex="1" parent="1">
          <mxGeometry x="861.25" y="1590" width="127.5" height="30" as="geometry" />
        </mxCell>
        <mxCell id="fM2BKAsaaPWlNRGQhoTq-128" style="edgeStyle=orthogonalEdgeStyle;rounded=0;orthogonalLoop=1;jettySize=auto;html=1;entryX=0.75;entryY=0;entryDx=0;entryDy=0;dashed=1;" edge="1" parent="1" source="fM2BKAsaaPWlNRGQhoTq-74" target="fM2BKAsaaPWlNRGQhoTq-127">
          <mxGeometry relative="1" as="geometry">
            <Array as="points">
              <mxPoint x="1098" y="1740" />
              <mxPoint x="1098" y="1740" />
            </Array>
          </mxGeometry>
        </mxCell>
        <mxCell id="fM2BKAsaaPWlNRGQhoTq-74" value="" style="shape=folder;fontStyle=1;tabWidth=30;tabHeight=30;tabPosition=left;html=1;boundedLbl=1;whiteSpace=wrap;fillColor=#fa6800;fontColor=#000000;strokeColor=#C73500;" vertex="1" parent="1">
          <mxGeometry x="1035" y="1300" width="165" height="420" as="geometry" />
        </mxCell>
        <mxCell id="fM2BKAsaaPWlNRGQhoTq-75" value="&lt;div style=&quot;text-align: center;&quot;&gt;&lt;span style=&quot;background-color: transparent; color: light-dark(rgb(0, 0, 0), rgb(255, 255, 255));&quot;&gt;adminstration infrastucture&lt;/span&gt;&lt;/div&gt;" style="text;whiteSpace=wrap;html=1;" vertex="1" parent="1">
          <mxGeometry x="1042.5" y="1340" width="150" height="40" as="geometry" />
        </mxCell>
        <mxCell id="fM2BKAsaaPWlNRGQhoTq-79" value="" style="shape=folder;fontStyle=1;tabWidth=210;tabHeight=30;tabPosition=left;html=1;boundedLbl=1;whiteSpace=wrap;fillColor=#0050ef;strokeColor=#001DBC;fontColor=#ffffff;" vertex="1" parent="1">
          <mxGeometry x="110" y="1910" width="1290" height="100" as="geometry" />
        </mxCell>
        <mxCell id="fM2BKAsaaPWlNRGQhoTq-80" value="IN memory events Bus" style="text;html=1;align=center;verticalAlign=middle;whiteSpace=wrap;rounded=0;" vertex="1" parent="1">
          <mxGeometry x="630" y="1940" width="290" height="30" as="geometry" />
        </mxCell>
        <mxCell id="fM2BKAsaaPWlNRGQhoTq-81" style="edgeStyle=orthogonalEdgeStyle;rounded=0;orthogonalLoop=1;jettySize=auto;html=1;entryX=0.116;entryY=0;entryDx=0;entryDy=0;entryPerimeter=0;dashed=1;" edge="1" parent="1" source="fM2BKAsaaPWlNRGQhoTq-60" target="fM2BKAsaaPWlNRGQhoTq-79">
          <mxGeometry relative="1" as="geometry">
            <Array as="points">
              <mxPoint x="260" y="1780" />
              <mxPoint x="260" y="1780" />
            </Array>
          </mxGeometry>
        </mxCell>
        <mxCell id="fM2BKAsaaPWlNRGQhoTq-83" style="edgeStyle=orthogonalEdgeStyle;rounded=0;orthogonalLoop=1;jettySize=auto;html=1;entryX=0;entryY=0;entryDx=0;entryDy=82.5;entryPerimeter=0;dashed=1;" edge="1" parent="1" source="fM2BKAsaaPWlNRGQhoTq-60" target="fM2BKAsaaPWlNRGQhoTq-62">
          <mxGeometry relative="1" as="geometry">
            <Array as="points">
              <mxPoint x="410" y="1363" />
              <mxPoint x="410" y="1363" />
            </Array>
          </mxGeometry>
        </mxCell>
        <mxCell id="fM2BKAsaaPWlNRGQhoTq-84" style="edgeStyle=orthogonalEdgeStyle;rounded=0;orthogonalLoop=1;jettySize=auto;html=1;entryX=0;entryY=0;entryDx=0;entryDy=52.5;entryPerimeter=0;dashed=1;" edge="1" parent="1" source="fM2BKAsaaPWlNRGQhoTq-60" target="fM2BKAsaaPWlNRGQhoTq-64">
          <mxGeometry relative="1" as="geometry">
            <Array as="points">
              <mxPoint x="410" y="1613" />
              <mxPoint x="410" y="1613" />
            </Array>
          </mxGeometry>
        </mxCell>
        <mxCell id="fM2BKAsaaPWlNRGQhoTq-85" style="edgeStyle=orthogonalEdgeStyle;rounded=0;orthogonalLoop=1;jettySize=auto;html=1;entryX=0.407;entryY=0.11;entryDx=0;entryDy=0;entryPerimeter=0;dashed=1;" edge="1" parent="1" source="fM2BKAsaaPWlNRGQhoTq-62" target="fM2BKAsaaPWlNRGQhoTq-65">
          <mxGeometry relative="1" as="geometry">
            <Array as="points">
              <mxPoint x="515" y="1440" />
              <mxPoint x="515" y="1440" />
            </Array>
          </mxGeometry>
        </mxCell>
        <mxCell id="fM2BKAsaaPWlNRGQhoTq-90" style="edgeStyle=orthogonalEdgeStyle;rounded=0;orthogonalLoop=1;jettySize=auto;html=1;entryX=0;entryY=0;entryDx=103;entryDy=30;entryPerimeter=0;dashed=1;" edge="1" parent="1" source="fM2BKAsaaPWlNRGQhoTq-68" target="fM2BKAsaaPWlNRGQhoTq-66">
          <mxGeometry relative="1" as="geometry">
            <Array as="points">
              <mxPoint x="750" y="1410" />
              <mxPoint x="627" y="1410" />
            </Array>
          </mxGeometry>
        </mxCell>
        <mxCell id="fM2BKAsaaPWlNRGQhoTq-93" style="edgeStyle=orthogonalEdgeStyle;rounded=0;orthogonalLoop=1;jettySize=auto;html=1;entryX=0;entryY=0;entryDx=230.00000000000003;entryDy=82.5;entryPerimeter=0;dashed=1;" edge="1" parent="1" source="fM2BKAsaaPWlNRGQhoTq-74" target="fM2BKAsaaPWlNRGQhoTq-68">
          <mxGeometry relative="1" as="geometry">
            <Array as="points">
              <mxPoint x="1030" y="1363" />
              <mxPoint x="1030" y="1363" />
            </Array>
          </mxGeometry>
        </mxCell>
        <mxCell id="fM2BKAsaaPWlNRGQhoTq-94" style="edgeStyle=orthogonalEdgeStyle;rounded=0;orthogonalLoop=1;jettySize=auto;html=1;entryX=0;entryY=0;entryDx=150;entryDy=75;entryPerimeter=0;dashed=1;" edge="1" parent="1" source="fM2BKAsaaPWlNRGQhoTq-74" target="fM2BKAsaaPWlNRGQhoTq-72">
          <mxGeometry relative="1" as="geometry">
            <Array as="points">
              <mxPoint x="1015" y="1635" />
              <mxPoint x="1015" y="1635" />
            </Array>
          </mxGeometry>
        </mxCell>
        <mxCell id="fM2BKAsaaPWlNRGQhoTq-95" style="edgeStyle=orthogonalEdgeStyle;rounded=0;orthogonalLoop=1;jettySize=auto;html=1;entryX=0;entryY=0;entryDx=0;entryDy=52.5;entryPerimeter=0;dashed=1;" edge="1" parent="1" source="fM2BKAsaaPWlNRGQhoTq-62" target="fM2BKAsaaPWlNRGQhoTq-70">
          <mxGeometry relative="1" as="geometry">
            <Array as="points">
              <mxPoint x="640" y="1420" />
              <mxPoint x="718" y="1420" />
              <mxPoint x="718" y="1463" />
            </Array>
          </mxGeometry>
        </mxCell>
        <mxCell id="fM2BKAsaaPWlNRGQhoTq-96" value="" style="rounded=1;whiteSpace=wrap;html=1;fillColor=#647687;fontColor=#ffffff;strokeColor=#314354;" vertex="1" parent="1">
          <mxGeometry x="120" y="740" width="120" height="100" as="geometry" />
        </mxCell>
        <mxCell id="fM2BKAsaaPWlNRGQhoTq-97" value="" style="endArrow=none;html=1;rounded=0;exitX=0;exitY=0.25;exitDx=0;exitDy=0;entryX=1;entryY=0.25;entryDx=0;entryDy=0;" edge="1" parent="1" source="fM2BKAsaaPWlNRGQhoTq-96" target="fM2BKAsaaPWlNRGQhoTq-96">
          <mxGeometry width="50" height="50" relative="1" as="geometry">
            <mxPoint x="640" y="670" as="sourcePoint" />
            <mxPoint x="690" y="620" as="targetPoint" />
          </mxGeometry>
        </mxCell>
        <mxCell id="fM2BKAsaaPWlNRGQhoTq-98" value="&lt;span style=&quot;font-size: 14px;&quot;&gt;Registration Data&lt;/span&gt;" style="text;html=1;align=center;verticalAlign=middle;whiteSpace=wrap;rounded=0;" vertex="1" parent="1">
          <mxGeometry x="120" y="740" width="120" height="30" as="geometry" />
        </mxCell>
        <mxCell id="fM2BKAsaaPWlNRGQhoTq-99" value="" style="rounded=1;whiteSpace=wrap;html=1;fillColor=#d80073;fontColor=#ffffff;strokeColor=#A50040;" vertex="1" parent="1">
          <mxGeometry x="354" y="740" width="120" height="100" as="geometry" />
        </mxCell>
        <mxCell id="fM2BKAsaaPWlNRGQhoTq-100" value="" style="endArrow=none;html=1;rounded=0;exitX=0;exitY=0.25;exitDx=0;exitDy=0;entryX=1;entryY=0.25;entryDx=0;entryDy=0;" edge="1" parent="1" source="fM2BKAsaaPWlNRGQhoTq-99" target="fM2BKAsaaPWlNRGQhoTq-99">
          <mxGeometry width="50" height="50" relative="1" as="geometry">
            <mxPoint x="874" y="670" as="sourcePoint" />
            <mxPoint x="924" y="620" as="targetPoint" />
          </mxGeometry>
        </mxCell>
        <mxCell id="fM2BKAsaaPWlNRGQhoTq-101" value="&lt;span style=&quot;font-size: 14px;&quot;&gt;User Acess Data&lt;/span&gt;" style="text;html=1;align=center;verticalAlign=middle;whiteSpace=wrap;rounded=0;" vertex="1" parent="1">
          <mxGeometry x="354" y="740" width="120" height="30" as="geometry" />
        </mxCell>
        <mxCell id="fM2BKAsaaPWlNRGQhoTq-102" value="" style="rounded=1;whiteSpace=wrap;html=1;fillColor=#d5e8d4;strokeColor=#82b366;gradientColor=#97d077;" vertex="1" parent="1">
          <mxGeometry x="640" y="740" width="120" height="100" as="geometry" />
        </mxCell>
        <mxCell id="fM2BKAsaaPWlNRGQhoTq-103" value="" style="endArrow=none;html=1;rounded=0;exitX=0;exitY=0.25;exitDx=0;exitDy=0;entryX=1;entryY=0.25;entryDx=0;entryDy=0;" edge="1" parent="1" source="fM2BKAsaaPWlNRGQhoTq-102" target="fM2BKAsaaPWlNRGQhoTq-102">
          <mxGeometry width="50" height="50" relative="1" as="geometry">
            <mxPoint x="1160" y="670" as="sourcePoint" />
            <mxPoint x="1210" y="620" as="targetPoint" />
          </mxGeometry>
        </mxCell>
        <mxCell id="fM2BKAsaaPWlNRGQhoTq-104" value="&lt;span style=&quot;font-size: 14px;&quot;&gt;meeting data&lt;/span&gt;" style="text;html=1;align=center;verticalAlign=middle;whiteSpace=wrap;rounded=0;" vertex="1" parent="1">
          <mxGeometry x="640" y="740" width="120" height="30" as="geometry" />
        </mxCell>
        <mxCell id="fM2BKAsaaPWlNRGQhoTq-105" value="" style="rounded=1;whiteSpace=wrap;html=1;fillColor=#ffcd28;strokeColor=#d79b00;gradientColor=#ffa500;" vertex="1" parent="1">
          <mxGeometry x="905" y="740" width="130" height="100" as="geometry" />
        </mxCell>
        <mxCell id="fM2BKAsaaPWlNRGQhoTq-106" value="" style="endArrow=none;html=1;rounded=0;exitX=0;exitY=0.25;exitDx=0;exitDy=0;entryX=1;entryY=0.25;entryDx=0;entryDy=0;" edge="1" parent="1" source="fM2BKAsaaPWlNRGQhoTq-105" target="fM2BKAsaaPWlNRGQhoTq-105">
          <mxGeometry width="50" height="50" relative="1" as="geometry">
            <mxPoint x="1425" y="670" as="sourcePoint" />
            <mxPoint x="1475" y="620" as="targetPoint" />
          </mxGeometry>
        </mxCell>
        <mxCell id="fM2BKAsaaPWlNRGQhoTq-107" value="&lt;span style=&quot;font-size: 14px;&quot;&gt;Adminstration Data&lt;/span&gt;" style="text;html=1;align=center;verticalAlign=middle;whiteSpace=wrap;rounded=0;fillColor=#ffcd28;gradientColor=#ffa500;strokeColor=#d79b00;" vertex="1" parent="1">
          <mxGeometry x="905" y="740" width="130" height="30" as="geometry" />
        </mxCell>
        <mxCell id="fM2BKAsaaPWlNRGQhoTq-108" value="" style="rounded=1;whiteSpace=wrap;html=1;fillColor=#f8cecc;strokeColor=#b85450;gradientColor=#ea6b66;" vertex="1" parent="1">
          <mxGeometry x="1150" y="740" width="120" height="100" as="geometry" />
        </mxCell>
        <mxCell id="fM2BKAsaaPWlNRGQhoTq-109" value="" style="endArrow=none;html=1;rounded=0;exitX=0;exitY=0.25;exitDx=0;exitDy=0;entryX=1;entryY=0.25;entryDx=0;entryDy=0;" edge="1" parent="1" source="fM2BKAsaaPWlNRGQhoTq-108" target="fM2BKAsaaPWlNRGQhoTq-108">
          <mxGeometry width="50" height="50" relative="1" as="geometry">
            <mxPoint x="1670" y="670" as="sourcePoint" />
            <mxPoint x="1720" y="620" as="targetPoint" />
          </mxGeometry>
        </mxCell>
        <mxCell id="fM2BKAsaaPWlNRGQhoTq-110" value="&lt;span style=&quot;font-size: 14px;&quot;&gt;Registration Data&lt;/span&gt;" style="text;html=1;align=center;verticalAlign=middle;whiteSpace=wrap;rounded=0;" vertex="1" parent="1">
          <mxGeometry x="1150" y="740" width="120" height="30" as="geometry" />
        </mxCell>
        <mxCell id="fM2BKAsaaPWlNRGQhoTq-114" style="edgeStyle=orthogonalEdgeStyle;rounded=0;orthogonalLoop=1;jettySize=auto;html=1;entryX=0.63;entryY=-0.052;entryDx=0;entryDy=0;entryPerimeter=0;dashed=1;" edge="1" parent="1" source="fM2BKAsaaPWlNRGQhoTq-18" target="fM2BKAsaaPWlNRGQhoTq-101">
          <mxGeometry relative="1" as="geometry">
            <Array as="points">
              <mxPoint x="430" y="680" />
              <mxPoint x="430" y="680" />
            </Array>
          </mxGeometry>
        </mxCell>
        <mxCell id="fM2BKAsaaPWlNRGQhoTq-120" style="edgeStyle=orthogonalEdgeStyle;rounded=0;orthogonalLoop=1;jettySize=auto;html=1;entryX=0.921;entryY=0.299;entryDx=0;entryDy=0;entryPerimeter=0;dashed=1;" edge="1" parent="1" source="fM2BKAsaaPWlNRGQhoTq-12" target="fM2BKAsaaPWlNRGQhoTq-39">
          <mxGeometry relative="1" as="geometry">
            <Array as="points">
              <mxPoint x="1298" y="730" />
              <mxPoint x="1298" y="730" />
            </Array>
          </mxGeometry>
        </mxCell>
        <mxCell id="fM2BKAsaaPWlNRGQhoTq-122" value="" style="rounded=1;whiteSpace=wrap;html=1;fillColor=#60a917;strokeColor=#2D7600;fontColor=#ffffff;" vertex="1" parent="1">
          <mxGeometry x="300" y="1790" width="120" height="100" as="geometry" />
        </mxCell>
        <mxCell id="fM2BKAsaaPWlNRGQhoTq-123" value="" style="endArrow=none;html=1;rounded=0;exitX=0;exitY=0.25;exitDx=0;exitDy=0;entryX=1;entryY=0.25;entryDx=0;entryDy=0;fillColor=#60a917;strokeColor=#2D7600;" edge="1" parent="1" source="fM2BKAsaaPWlNRGQhoTq-122" target="fM2BKAsaaPWlNRGQhoTq-122">
          <mxGeometry width="50" height="50" relative="1" as="geometry">
            <mxPoint x="1018.5" y="1780" as="sourcePoint" />
            <mxPoint x="1068.5" y="1730" as="targetPoint" />
          </mxGeometry>
        </mxCell>
        <mxCell id="fM2BKAsaaPWlNRGQhoTq-124" value="&lt;span style=&quot;font-size: 14px;&quot;&gt;meeting Data&lt;/span&gt;" style="text;html=1;align=center;verticalAlign=middle;whiteSpace=wrap;rounded=0;fillColor=#60a917;strokeColor=#2D7600;fontColor=#ffffff;" vertex="1" parent="1">
          <mxGeometry x="300" y="1790" width="120" height="30" as="geometry" />
        </mxCell>
        <mxCell id="fM2BKAsaaPWlNRGQhoTq-125" value="" style="rounded=1;whiteSpace=wrap;html=1;fillColor=#fa6800;strokeColor=#C73500;fontColor=#000000;" vertex="1" parent="1">
          <mxGeometry x="1000" y="1780" width="130" height="100" as="geometry" />
        </mxCell>
        <mxCell id="fM2BKAsaaPWlNRGQhoTq-126" value="" style="endArrow=none;html=1;rounded=0;exitX=0;exitY=0.25;exitDx=0;exitDy=0;entryX=1;entryY=0.25;entryDx=0;entryDy=0;" edge="1" parent="1" source="fM2BKAsaaPWlNRGQhoTq-125" target="fM2BKAsaaPWlNRGQhoTq-125">
          <mxGeometry width="50" height="50" relative="1" as="geometry">
            <mxPoint x="1520" y="1710" as="sourcePoint" />
            <mxPoint x="1570" y="1660" as="targetPoint" />
          </mxGeometry>
        </mxCell>
        <mxCell id="fM2BKAsaaPWlNRGQhoTq-127" value="&lt;span style=&quot;font-size: 14px;&quot;&gt;Adminstration Data&lt;/span&gt;" style="text;html=1;align=center;verticalAlign=middle;whiteSpace=wrap;rounded=0;fillColor=#fa6800;strokeColor=#C73500;fontColor=#000000;" vertex="1" parent="1">
          <mxGeometry x="1000" y="1780" width="130" height="30" as="geometry" />
        </mxCell>
        <mxCell id="fM2BKAsaaPWlNRGQhoTq-130" style="edgeStyle=orthogonalEdgeStyle;rounded=0;orthogonalLoop=1;jettySize=auto;html=1;entryX=0.832;entryY=0.296;entryDx=0;entryDy=0;entryPerimeter=0;dashed=1;" edge="1" parent="1" source="fM2BKAsaaPWlNRGQhoTq-74" target="fM2BKAsaaPWlNRGQhoTq-79">
          <mxGeometry relative="1" as="geometry">
            <Array as="points">
              <mxPoint x="1183" y="1800" />
              <mxPoint x="1183" y="1800" />
            </Array>
          </mxGeometry>
        </mxCell>
        <mxCell id="fM2BKAsaaPWlNRGQhoTq-132" style="edgeStyle=orthogonalEdgeStyle;rounded=0;orthogonalLoop=1;jettySize=auto;html=1;entryX=0;entryY=0;entryDx=70;entryDy=30;entryPerimeter=0;dashed=1;" edge="1" parent="1" source="fM2BKAsaaPWlNRGQhoTq-2" target="fM2BKAsaaPWlNRGQhoTq-18">
          <mxGeometry relative="1" as="geometry">
            <Array as="points">
              <mxPoint x="484" y="470" />
              <mxPoint x="484" y="470" />
            </Array>
          </mxGeometry>
        </mxCell>
        <mxCell id="fM2BKAsaaPWlNRGQhoTq-133" style="edgeStyle=orthogonalEdgeStyle;rounded=0;orthogonalLoop=1;jettySize=auto;html=1;entryX=0;entryY=0;entryDx=67.5;entryDy=30;entryPerimeter=0;dashed=1;" edge="1" parent="1" source="fM2BKAsaaPWlNRGQhoTq-2" target="fM2BKAsaaPWlNRGQhoTq-16">
          <mxGeometry relative="1" as="geometry">
            <Array as="points">
              <mxPoint x="738" y="480" />
              <mxPoint x="738" y="480" />
            </Array>
          </mxGeometry>
        </mxCell>
        <mxCell id="fM2BKAsaaPWlNRGQhoTq-134" style="edgeStyle=orthogonalEdgeStyle;rounded=0;orthogonalLoop=1;jettySize=auto;html=1;entryX=0;entryY=0;entryDx=70;entryDy=35;entryPerimeter=0;dashed=1;" edge="1" parent="1" source="fM2BKAsaaPWlNRGQhoTq-2" target="fM2BKAsaaPWlNRGQhoTq-14">
          <mxGeometry relative="1" as="geometry">
            <Array as="points">
              <mxPoint x="1030" y="490" />
              <mxPoint x="1030" y="490" />
            </Array>
          </mxGeometry>
        </mxCell>
        <mxCell id="fM2BKAsaaPWlNRGQhoTq-135" style="edgeStyle=orthogonalEdgeStyle;rounded=0;orthogonalLoop=1;jettySize=auto;html=1;entryX=0;entryY=0;entryDx=70;entryDy=30;entryPerimeter=0;dashed=1;" edge="1" parent="1" source="fM2BKAsaaPWlNRGQhoTq-2" target="fM2BKAsaaPWlNRGQhoTq-12">
          <mxGeometry relative="1" as="geometry">
            <Array as="points">
              <mxPoint x="1270" y="480" />
              <mxPoint x="1270" y="480" />
            </Array>
          </mxGeometry>
        </mxCell>
      </root>
    </mxGraphModel>
  </diagram>
</mxfile>
